<?xml version="1.0" encoding="utf-8"?>

<!DOCTYPE svg PUBLIC "-//W3C//DTD SVG 1.1//EN" "http://www.w3.org/Graphics/SVG/1.1/DTD/svg11.dtd">
<svg version="1.1" id="Layer_1" xmlns="http://www.w3.org/2000/svg" xmlns:xlink="http://www.w3.org/1999/xlink" x="0px" y="0px"
	 viewBox="0 0 3473.8279 1715.7833" enable-background="new 0 0 3473.8279 1715.7833" xml:space="preserve">
<path d="M1154.7296,1531.1001c-231.0068,130.072-570.5698,199.0125-796.6992,18.8911
	c-198.9954-158.5079-326.155-412.3932-174.2796-651.475c62.9969-99.1696,169.4017-179.4986,289.2585-185.7309
	c137.836-7.1671,237.4861,93.8013,313.2947,197.6401c-56.2714,0.5464-105.7781-50.3491-159.3826-64.3405
	c-65.1038-16.9929-136.0901-10.1043-197.0444,18.2105c-123.4463,57.3439-193.1286,198.0464-157.8687,330.3953
	c89.267,300.3713,458.9343,263.5071,641.0417,79.3992c228.2145-230.7217,144.0251-587.2859,227.0279-872.3212
	c36.715-126.0809,116.1718-230.7459,229.9934-297.2874c133.6382-78.1264,264.8419-27.9672,366.8425,81.0032
	C1824.9808,91.4,1951.2767,26.998,2073.6094,88.1553c128.4824,64.2317,220.1343,176.2303,260.1404,313.6135
	c83.0029,285.0352-1.1865,641.5995,227.0278,872.3212c182.1074,184.1079,551.7749,220.9722,641.0417-79.3992
	c32.2588-121.0842-22.689-248.965-128.3333-314.4689c-57.1917-35.4612-127.0708-49.7255-193.6572-40.6412
	c-67.4617,9.2037-126.1997,71.4867-192.3052,70.8448c67.7578-92.811,157.709-189.8526,279.2361-197.4742
	c124.0398-7.7792,225.9033,62.3123,301.1714,154.9981c185.4124,228.3188,56.5735,484.7108-124.5608,657.3536
	c-204.1379,205.9312-557.9341,140.9039-788.3411,25.4592c-255.9861-136.1328-464.3889-346.2324-618.1154-590.6418
	C1663.4373,1076.9407,1394.6832,1395.9906,1154.7296,1531.1001z"/>
</svg>
