<svg id="Layer_1" enable-background="new 0 0 505.602 505.602" height="512" viewBox="0 0 505.602 505.602" width="512" xmlns="http://www.w3.org/2000/svg"><path d="m353.705 416.982-48.735-317.895c-1.197-7.809-7.915-13.575-15.815-13.575h-72.707c-7.9 0-14.618 5.766-15.815 13.575l-48.735 317.895c-.854 5.571 1.286 11.181 5.634 14.767l85.089 70.194c5.912 4.877 14.451 4.877 20.363 0l85.089-70.194c4.346-3.586 6.486-9.195 5.632-14.767z" fill="#d3d1d1"/><path d="m291.628 0h-77.655c-23.422 0-40.813 21.756-35.589 44.632l10.059 44.051c3.816 16.708 18.451 28.378 35.59 28.378h57.537c17.14 0 31.774-11.67 35.589-28.378l10.06-44.051c5.223-22.88-12.174-44.632-35.591-44.632z" fill="#fda5b7"/><path d="m330.592 266.219-14.142-92.246c-1.589-10.359-12.56-16.423-22.179-12.256l-102.478 44.423c-5.049 2.188-8.618 6.817-9.452 12.256l-16.155 105.38c-1.482 9.672 6.005 18.424 15.817 18.424 4.735 0-5.986 4.032 139.137-58.876 6.671-2.892 10.553-9.918 9.452-17.105z" fill="#e88793"/><path d="m353.705 416.983-8.971-58.517c-1.588-10.358-12.561-16.424-22.179-12.256l-152.177 65.966c-10.946 4.745-13.035 19.419-3.818 27.022l76.059 62.745c5.912 4.877 14.451 4.877 20.363 0l85.089-70.194c4.348-3.586 6.488-9.195 5.634-14.766z" fill="#e88793"/><g fill="#fc93a0"><path d="m294.272 161.717-102.479 44.423c-5.049 2.188-8.618 6.817-9.452 12.256l-9.894 64.535c12.66-7.133 26.582-16.924 41.82-30.13 30.415-26.36 69.232-36.551 108.44-38.015l-6.257-40.813c-1.588-10.359-12.56-16.423-22.178-12.256z"/><path d="m344.734 358.466c-1.588-10.358-12.561-16.424-22.179-12.256l-152.177 65.966c-10.946 4.745-13.035 19.419-3.818 27.022l35.852 29.576c56.405-12.295 108.221-36.455 146.997-79.812z"/><path d="m291.628 0h-77.655c-23.422 0-40.813 21.756-35.589 44.632l6.113 26.772c10.548-1.681 20.665-5.678 29.77-12.874 29.847-23.591 73.701-9.635 107.879 8.311l5.072-22.21c5.224-22.879-12.173-44.631-35.59-44.631z"/></g></svg>